<?xml version="1.0" encoding="UTF-8"?>
<svg width="160px" height="160px" viewBox="0 0 160 160" version="1.1" xmlns="http://www.w3.org/2000/svg" xmlns:xlink="http://www.w3.org/1999/xlink">
    <!-- Generator: Sketch 47.1 (45422) - http://www.bohemiancoding.com/sketch -->
    <title>inverted-square-vector</title>
    <desc>Created with Sketch.</desc>
    <defs></defs>
    <g id="Page-1" stroke="none" stroke-width="1" fill="none" fill-rule="evenodd">
        <g id="inverted-square" fill="#FFFFFF">
            <g id="Group-Copy" transform="translate(7.000000, 43.000000)">
                <path d="M4.61783784,52.1286486 C4.61783784,50.2232432 5.26567568,49.422973 7.55216216,49.422973 L11.4772973,49.422973 C13.7637838,49.422973 14.3735135,50.2232432 14.3735135,52.1286486 L14.3735135,53.4624324 L18.2224324,52.4335135 L18.2224324,51.4427027 C18.2224324,47.5556757 16.1645946,45.8789189 11.9727027,45.8789189 L7.01864865,45.8789189 C2.82675676,45.8789189 0.768918919,47.5556757 0.768918919,51.4427027 L0.768918919,60.4362162 C0.768918919,64.3613514 2.82675676,66 7.01864865,66 L11.9727027,66 C16.1645946,66 18.2224324,64.3613514 18.2224324,60.4362162 L18.2224324,59.7121622 L14.3735135,58.5689189 L14.3735135,59.7121622 C14.3735135,61.6175676 13.7637838,62.4178378 11.4772973,62.4178378 L7.55216216,62.4178378 C5.26567568,62.4178378 4.61783784,61.6175676 4.61783784,59.7121622 L4.61783784,52.1286486 Z M44.8572973,66 C49.0491892,66 51.107027,64.3613514 51.107027,60.4362162 L51.107027,51.4427027 C51.107027,47.5556757 49.0491892,45.8789189 44.8572973,45.8789189 L39.7127027,45.8789189 C35.5208108,45.8789189 33.462973,47.5556757 33.462973,51.4427027 L33.462973,60.4362162 C33.462973,64.3613514 35.5208108,66 39.7127027,66 L44.8572973,66 Z M40.2462162,62.4178378 C37.9597297,62.4178378 37.3118919,61.6175676 37.3118919,59.7121622 L37.3118919,52.1286486 C37.3118919,50.2232432 37.9597297,49.422973 40.2462162,49.422973 L44.3618919,49.422973 C46.6483784,49.422973 47.2581081,50.2232432 47.2581081,52.1286486 L47.2581081,59.7121622 C47.2581081,61.6175676 46.6483784,62.4178378 44.3618919,62.4178378 L40.2462162,62.4178378 Z M66.3475676,66 L84.9062162,66 L84.9062162,62.4178378 L78.122973,62.4178378 L78.122973,45.8789189 L67.1478378,45.8789189 L67.1478378,49.422973 L74.2740541,49.422973 L74.2740541,62.4178378 L66.3475676,62.4178378 L66.3475676,66 Z M78.122973,41.687027 L78.122973,37.9524324 L73.9310811,37.9524324 L73.9310811,41.687027 L78.122973,41.687027 Z M116.609459,66 L116.609459,51.6332432 C116.609459,47.7081081 114.742162,45.8789189 111.007568,45.8789189 L107.958919,45.8789189 C105.253243,45.8789189 103.728919,46.7172973 103.004865,47.67 L102.890541,47.67 L102.890541,45.8789189 L99.0416216,45.8789189 L99.0416216,66 L102.890541,66 L102.890541,52.7002703 C102.890541,50.3375676 104.795946,49.422973 107.082432,49.422973 L109.559459,49.422973 C111.96027,49.422973 112.760541,50.4137838 112.760541,52.7002703 L112.760541,66 L116.609459,66 Z M135.851351,59.5216216 L132.192973,60.4362162 L132.192973,61.1602703 C132.192973,64.2089189 133.564865,66 138.175946,66 L142.596486,66 C146.635946,66 148.998649,64.6281081 148.998649,60.7791892 L148.998649,59.5216216 C148.998649,55.8251351 147.169459,54.1483784 142.748919,54.1483784 L139.052432,54.1483784 C136.537297,54.1483784 135.851351,53.5386486 135.851351,51.7856757 L135.851351,51.3283784 C135.851351,49.6135135 136.613514,49.0418919 138.785676,49.0418919 L142.482162,49.0418919 C144.882973,49.0418919 145.34027,49.6897297 145.34027,51.3664865 L145.34027,51.9381081 L148.998649,50.9472973 L148.998649,50.6424324 C148.998649,47.5937838 147.626757,45.8789189 143.015676,45.8789189 L138.595135,45.8789189 C134.555676,45.8789189 132.192973,47.2508108 132.192973,51.1378378 L132.192973,52.0524324 C132.192973,55.787027 133.831622,57.197027 138.252162,57.197027 L142.139189,57.197027 C144.654324,57.197027 145.34027,57.882973 145.34027,59.6359459 L145.34027,60.4362162 C145.34027,62.1891892 144.654324,62.7989189 142.405946,62.7989189 L138.709459,62.7989189 C136.308649,62.7989189 135.851351,62.0748649 135.851351,60.3981081 L135.851351,59.5216216 Z" id="coins-copy-2"></path>
                <path d="M41.9761706,31.2975218 L41.9761706,32.6128839 C41.9761706,38.7711702 45.2047868,41.3421053 51.7815974,41.3421053 L61.5272349,41.3421053 C68.1040456,41.3421053 71.3326617,38.7711702 71.3326617,32.6128839 L71.3326617,27.530803 C71.3326617,24.0032409 69.9575104,21.492095 66.7288942,20.5952572 C69.9575104,19.7582086 71.3326617,17.2470627 71.3326617,13.6597115 L71.3326617,9.17552241 C71.3326617,3.07702529 68.1040456,0.446301042 61.5272349,0.446301042 L51.7815974,0.446301042 C45.2047868,0.446301042 41.9761706,3.07702529 41.9761706,9.17552241 L41.9761706,10.4310953 L48.0148786,12.0454034 L48.0148786,10.2517278 C48.0148786,7.26226841 49.0312948,6.00669548 52.618646,6.00669548 L60.6901863,6.00669548 C64.2775376,6.00669548 65.2939537,7.26226841 65.2939537,10.2517278 L65.2939537,13.5999223 C65.2939537,16.5893817 64.2775376,17.9047438 60.6901863,17.9047438 L52.5588568,17.9047438 L52.5588568,23.2857707 L60.6901863,23.2857707 C64.2775376,23.2857707 65.2939537,24.5413436 65.2939537,27.530803 L65.2939537,31.4768893 C65.2939537,34.4663487 64.2775376,35.7219216 60.6901863,35.7219216 L52.618646,35.7219216 C49.0312948,35.7219216 48.0148786,34.4663487 48.0148786,31.4768893 L48.0148786,29.6832137 L41.9761706,31.2975218 Z M98.8614843,0.446301042 L82.7781929,0.446301042 L82.7781929,6.00669548 L92.8227764,6.00669548 L92.8227764,35.7219216 L81.3432524,35.7219216 L81.3432524,41.3421053 L109.982273,41.3421053 L109.982273,35.7219216 L98.8614843,35.7219216 L98.8614843,0.446301042 Z M148.392728,31.2377326 L148.392728,25.6773381 L141.397393,25.6773381 L141.397393,0.446301042 L134.103112,0.446301042 L113.774788,25.8567057 L113.774788,31.2377326 L135.358685,31.2377326 L135.358685,41.3421053 L141.397393,41.3421053 L141.397393,31.2377326 L148.392728,31.2377326 Z M135.358685,25.6773381 L121.00928,25.6773381 L135.358685,8.03952785 L135.358685,25.6773381 Z" id="314"></path>
            </g>
        </g>
    </g>
</svg>