<?xml version="1.0" encoding="UTF-8"?>
<svg width="160px" height="160px" viewBox="0 0 160 160" version="1.1" xmlns="http://www.w3.org/2000/svg" xmlns:xlink="http://www.w3.org/1999/xlink" style="background: #2D3142;">
    <!-- Generator: Sketch 47.1 (45422) - http://www.bohemiancoding.com/sketch -->
    <title>square inverted-vector</title>
    <desc>Created with Sketch.</desc>
    <defs></defs>
    <g id="Page-1" stroke="none" stroke-width="1" fill="none" fill-rule="evenodd">
        <g id="square-inverted">
            <text id="atomicbit-.io" font-family="CPMono_v07Plain, CPMono_v07" font-size="27.5" font-weight="normal" letter-spacing="-0.200000003" fill="#D9DBF1">
                <tspan x="0.925000027" y="105">atomicbit</tspan>
                <tspan x="106.775" y="138">.i</tspan>
                <tspan x="142.125" y="138">o</tspan>
            </text>
            <path d="M68.0337395,51.2130471 C65.4745264,49.532334 63.0553066,47.7930175 60.7760075,45.9950454 C56.6172863,49.2392125 53.7182213,52.2097305 52.0787254,54.9066887 C50.3192664,57.6427332 49.849418,59.6849644 50.6691659,61.0334434 C51.4889138,62.3819225 53.5382529,62.9975233 56.8172446,62.8802642 C60.0162609,62.7630052 64.0949455,61.805404 69.0534208,60.0074319 C68.5735684,57.1541283 68.233678,54.222696 68.0337395,51.2130471 Z M91.846298,51.2130471 C91.6463595,54.222696 91.3264627,57.1541283 90.8865979,60.0074319 C95.8450732,61.805404 99.9237578,62.7630052 103.122774,62.8802642 C106.401766,62.9975233 108.461102,62.391694 109.300843,61.0627581 C110.140585,59.6947358 109.66074,57.6427332 107.861293,54.9066887 C106.18181,52.2097305 103.282745,49.2392125 99.1640112,45.9950454 C96.8447244,47.7930175 94.4055111,49.532334 91.846298,51.2130471 Z M91.9662605,40.7184145 C92.046236,41.9691777 92.0862231,43.2394651 92.0862231,44.5293146 C92.0862231,45.7409915 92.046236,46.972193 91.9662605,48.2229562 C93.8456826,47.0112794 95.6251088,45.7800778 97.3045923,44.5293146 C95.6251088,43.2003787 93.8456826,41.9300914 91.9662605,40.7184145 Z M89.4470478,39.076796 C87.9275151,38.1387236 86.368018,37.2202082 84.7685098,36.3212221 C83.129014,35.4222361 81.5095363,34.5623493 79.9100281,33.7415359 C78.31052,34.5623493 76.7310294,35.4222361 75.1715089,36.3212221 C73.532013,37.2202082 71.9525224,38.1387236 70.4329897,39.076796 C70.393002,40.8356818 70.3730084,42.6531698 70.3730084,44.5293146 C70.3730084,46.3272867 70.393002,48.105689 70.4329897,49.8645747 C71.9525224,50.8417335 73.532013,51.7797918 75.1715089,52.6787779 C76.7310294,53.5777639 78.3305135,54.4376507 79.9700094,55.2584641 C81.5695175,54.4376507 83.1690017,53.5777639 84.7685098,52.6787779 C86.4080057,51.7797918 87.9675028,50.8417335 89.4470478,49.8645747 C89.5670109,48.105689 89.6269916,46.3272867 89.6269916,44.5293146 C89.6269916,42.6531698 89.5670109,40.8356818 89.4470478,39.076796 Z M90.8266167,28.9925681 C91.3064691,31.8458717 91.6463595,34.777304 91.846298,37.7869529 C94.4055111,39.467666 96.8247309,41.2069825 99.10403,43.0049546 C103.182776,39.7998739 106.081841,36.8488987 107.801312,34.1519405 C109.640746,31.415896 110.140585,29.3443506 109.300843,27.9372419 C108.461102,26.5301333 106.361779,25.9047611 103.002812,26.0611065 C99.7238199,26.2174519 95.6651288,27.194596 90.8266167,28.9925681 Z M69.4133083,26.7646573 L69.4732896,26.6473988 C70.5929453,20.9798781 72.1124553,16.6218154 74.031865,13.5730801 C75.9512748,10.5243448 77.9306365,9 79.9700094,9 C82.0093823,9 83.9887439,10.5243448 85.9081537,13.5730801 C87.8275635,16.6218154 89.3270799,20.9798781 90.4067479,26.6473988 L90.4067479,26.7646573 C95.925051,24.8494262 100.523568,23.9113678 104.202437,23.9504542 C108.001269,24.0286269 110.420488,24.9666852 111.460169,26.7646573 C111.820058,27.3900389 112,28.1326684 112,28.9925681 C112,30.4387631 111.440181,32.1389938 110.320525,34.0933113 C108.48109,37.3374784 105.362096,40.8161114 100.963449,44.5293146 L101.02343,44.5293146 C105.502053,48.2816042 108.621047,51.7406943 110.380506,54.9066887 C111.460174,56.8610062 112,58.5612369 112,60.0074319 C112,60.8673316 111.820058,61.6099611 111.460169,62.2353427 C110.420488,63.9942284 108.071246,64.9127439 104.412371,64.9909166 C100.753496,65.0690893 96.1249889,64.1505738 90.5267104,62.2353427 L90.4667291,62.2353427 C89.3870611,67.8246908 87.8875447,72.1632105 85.968135,75.2510322 C84.0487252,78.4170266 82.04937,80 79.9700094,80 C77.8906488,80 75.8713,78.4170266 73.9119025,75.2510322 C72.0324804,72.1632105 70.532964,67.8246908 69.4133083,62.2353427 C63.8550175,64.1896602 59.236507,65.1179471 55.5576382,65.0202312 C51.8787695,64.9225153 49.5395239,63.9942284 48.5398313,62.2353427 C48.179942,61.6099611 48,60.8673316 48,60.0074319 C48,58.6003233 48.5198324,56.9000925 49.5595127,54.9066887 C51.3189716,51.7406943 54.4379657,48.2816042 58.9165886,44.5293146 C54.5179411,40.8161114 51.4389341,37.3570213 49.6794752,34.1519405 C48.5598195,32.1585367 48,30.4192202 48,28.9339389 C48,28.1131255 48.179942,27.3900389 48.5398313,26.7646573 C49.5795116,24.9666852 51.9587443,24.0286269 55.6776007,23.9504542 C59.3964572,23.9113678 63.9749806,24.8494262 69.4133083,26.7646573 Z M88.2474227,27.5268373 C87.3676932,22.4065255 86.1680801,18.4588633 84.6485473,15.6837325 C83.1290146,12.8304289 81.5695175,11.4037985 79.9700094,11.4037985 C78.3305135,11.4037985 76.7510229,12.8304289 75.2314902,15.6837325 C73.7119574,18.4588633 72.5323378,22.4065255 71.6925961,27.5268373 C74.4517476,28.5430824 77.2108578,29.7156553 79.9700094,31.0445912 C82.7291609,29.7156553 85.4882711,28.5430824 88.2474227,27.5268373 Z M88.547329,29.8133774 C86.6279192,30.6341907 84.6485575,31.4940775 82.6091846,32.3930636 C83.7288403,32.9793588 84.8684728,33.5851882 86.0281162,34.2105698 C87.1077842,34.8750377 88.187436,35.5199528 89.267104,36.1453344 C89.1071532,33.9955852 88.8672306,31.8849539 88.547329,29.8133774 Z M71.3327085,29.8720066 C71.0527946,31.9044968 70.812872,33.9955852 70.6129335,36.1453344 C71.6926015,35.5199528 72.7922468,34.8750377 73.9119025,34.2105698 C75.0315582,33.5851882 76.1511972,32.9793588 77.2708529,32.3930636 C75.2714677,31.4940775 73.292106,30.6537336 71.3327085,29.8720066 Z M69.0534208,28.9925681 C64.2149086,27.194596 60.1762111,26.2174519 56.9372071,26.0611065 C53.57824,25.9047611 51.4989106,26.5301333 50.6991565,27.9372419 C49.819427,29.3443506 50.2992723,31.415896 52.1387067,34.1519405 C53.8981656,36.8488987 56.7772371,39.7998739 60.7760075,43.0049546 C63.0553066,41.1678961 65.4745264,39.4090368 68.0337395,37.7283237 C68.233678,34.7577611 68.5735684,31.8458717 69.0534208,28.9925681 Z M67.9137769,40.7184145 C66.0743426,41.9300914 64.31491,43.2003787 62.6354264,44.5293146 C64.31491,45.7800778 66.0743426,47.0112794 67.9137769,48.2229562 C67.8737892,46.972193 67.8537957,45.7409915 67.8537957,44.5293146 C67.8537957,43.2394651 67.8737892,41.9691777 67.9137769,40.7184145 Z M70.6129335,52.7960363 C70.812872,54.9457856 71.0527946,57.0564168 71.3327085,59.1279934 C73.292106,58.3462664 75.2714677,57.4863796 77.2708529,56.5483072 C76.1511972,56.0010983 75.0315582,55.3952689 73.9119025,54.730801 C72.7522591,54.1054194 71.6526138,53.4605043 70.6129335,52.7960363 Z M82.6091846,56.5483072 C84.6485575,57.4863796 86.6279192,58.3462664 88.547329,59.1279934 C88.8672306,57.0564168 89.1071532,54.9457856 89.267104,52.7960363 C88.2274237,53.4605043 87.1477719,54.1054194 86.0281162,54.730801 C84.8684728,55.3952689 83.7288403,56.0010983 82.6091846,56.5483072 Z M79.9100281,57.8967795 C77.1908643,59.2257154 74.4517476,60.4178312 71.6925961,61.4731627 C72.5323378,66.4762155 73.6919639,70.4043348 75.1715089,73.2576383 C76.6910416,76.1500282 78.2905258,77.5962015 79.9700094,77.5962015 C81.6494929,77.5962015 83.2289835,76.1500282 84.7085286,73.2576383 C86.2280613,70.4043348 87.4076809,66.4762155 88.2474227,61.4731627 C85.4482834,60.4178312 82.6691797,59.2257154 79.9100281,57.8967795 Z" id="⚛︎" fill="#C33C54"></path>
        </g>
    </g>
</svg>